<?xml version="1.0"?><svg width="227.521" height="85.789" xmlns="http://www.w3.org/2000/svg">
 <metadata id="metadata7764">image/svg+xml</metadata>

 <g>
  <title>Layer 1</title>
  <path fill="#000000" stroke="#000000" stroke-width="0.75" d="m227.145996,76.807999c0,4.752998 -3.853989,8.606003 -8.606003,8.606003l-209.558993,0c-4.753,0 -8.606,-3.854004 -8.606,-8.606003l0,-67.826999c0,-4.753 3.853,-8.606 8.606,-8.606l209.558993,0c4.752991,0 8.606003,3.853 8.606003,8.606l0,67.826999z" id="path7747"/>
  <path fill="#000000" stroke="#000000" stroke-width="0.75" d="m218.645004,71.757004c0,4.043999 -3.56601,7.324997 -7.962006,7.324997l-193.843998,0c-4.396001,0 -7.959001,-3.280998 -7.959001,-7.324997l0,-57.724004c0,-4.045 3.563,-7.324 7.959001,-7.324l193.843983,0c4.396011,0 7.962006,3.279 7.962006,7.324l0,57.724004l0.000015,0z" id="path7749"/>
  <path id="path7755" d="m110.723,55.136002l-0.348999,1.813l-5.789001,4.743l-3.696999,-4.743l0.349998,-1.813l5.789001,-4.743l3.695999,4.743zm5.371002,-25.111002l-0.418999,1.813l-5.719002,4.812002l-3.766998,-4.812002l0.417999,-1.813l5.720001,-4.743l3.766998,4.743z" fill="#ff0000"/>
 </g>
</svg>