<?xml version="1.0" encoding="iso-8859-1"?>
<!-- Generator: Adobe Illustrator 19.0.0, SVG Export Plug-In . SVG Version: 6.00 Build 0)  -->
<svg xmlns="http://www.w3.org/2000/svg" xmlns:xlink="http://www.w3.org/1999/xlink" version="1.1" id="Layer_1" x="0px" y="0px" viewBox="0 0 388.48 388.48" style="enable-background:new 0 0 388.48 388.48;" xml:space="preserve" width="512" height="512">
<g>
	<path style="fill:#F24125;" d="M294.993,119.166h4.922c1.7,0,3.077-1.378,3.077-3.077v-2.284c0-2.468-2.001-4.469-4.469-4.469   h-72.691c-7.091,0-12.84,5.749-12.84,12.84v17.99c0,7.091,5.749,12.84,12.84,12.84h72.691c2.468,0,4.469-2.001,4.469-4.469v-2.293   c0-1.7-1.378-3.077-3.077-3.077h-4.672L294.993,119.166z"/>
	<rect x="224.243" y="119.166" style="fill:#E6E6E6;" width="72.75" height="24"/>
	<polygon style="fill:#CCCCCC;" points="296.993,119.166 234.326,119.166 224.243,119.166 224.243,129.166 224.243,143.166    234.326,143.166 234.326,129.166 296.993,129.166  "/>
	<path style="fill:#9EBC4B;" d="M82.538,28.273c-0.821,0-1.638-0.335-2.23-0.993c-1.109-1.231-1.009-3.128,0.222-4.237l7.11-6.4   c1.231-1.109,3.128-1.009,4.237,0.222c1.109,1.231,1.009,3.128-0.222,4.237l-7.11,6.4C83.971,28.018,83.252,28.273,82.538,28.273z"/>
	<path style="fill:#9EBC4B;" d="M65.737,29.573c-0.545,0-1.097-0.148-1.593-0.46l-12.26-7.7c-1.403-0.881-1.826-2.733-0.945-4.136   s2.733-1.826,4.136-0.945l12.26,7.7c1.403,0.881,1.826,2.733,0.945,4.136C67.71,29.075,66.734,29.573,65.737,29.573z"/>
	<path style="fill:#9EBC4B;" d="M83.673,54.409c-1.526,0-2.832-1.16-2.982-2.71c-0.16-1.649,1.047-3.116,2.696-3.275l8.97-0.87   c1.652-0.161,3.116,1.047,3.275,2.696c0.16,1.649-1.047,3.116-2.696,3.275l-8.97,0.87C83.868,54.405,83.77,54.409,83.673,54.409z"/>
	<path style="fill:#9EBC4B;" d="M64.315,53.207c-0.262,0-0.527-0.035-0.792-0.106l-11-3c-1.598-0.436-2.541-2.085-2.105-3.684   c0.436-1.599,2.086-2.54,3.684-2.105l11,3c1.598,0.436,2.541,2.085,2.105,3.684C66.844,52.329,65.635,53.207,64.315,53.207z"/>
	<polyline style="fill:#E6E6E6;" points="104.07,96.895 97.97,156.896 50.18,156.896 44.08,96.895 63,96.895 85.15,96.895    104.07,96.895  "/>
	<polyline style="fill:#CCCCCC;" points="66.08,96.895 63,96.895 44.08,96.895 50.18,156.896 66.243,156.896 66.08,96.895  "/>
	<path style="fill:#4CC18E;" d="M84.87,23.606c1.12,1.92,1.74,4.16,1.69,6.54l-0.55,25.93l-0.86,40.82H63l-1.41-66.75   c-0.02-0.76,0.04-1.51,0.15-2.24c0.95-5.94,6.11-10.51,12.34-10.51C78.69,17.396,82.71,19.896,84.87,23.606z"/>
	<path style="fill:#44B27D;" d="M69.073,27.906c0.755-4.724,4.178-8.572,8.679-9.954c-1.161-0.358-2.393-0.556-3.672-0.556   c-6.23,0-11.39,4.57-12.34,10.51c-0.11,0.73-0.17,1.48-0.15,2.24L63,96.896h7.333l-1.41-66.75   C68.903,29.386,68.963,28.636,69.073,27.906z"/>
	<polyline style="fill:#F7B239;" points="340.776,330.154 336.284,354.92 333.064,372.608 304.36,372.608 304.36,330.154    340.776,330.154  "/>
	<polyline style="fill:#F7B239;" points="84.133,330.154 84.133,372.608 55.429,372.608 52.209,354.92 47.705,330.154    84.133,330.154  "/>
	<polyline style="fill:#E5A030;" points="84.133,330.154 47.705,330.154 52.209,354.92 84.133,354.92 84.133,330.154  "/>
	<polyline style="fill:#E5A030;" points="340.776,330.154 304.36,330.154 304.36,354.92 336.284,354.92 340.776,330.154  "/>
	<path style="fill:#F7B239;" d="M388.48,152.002v181.49H0v-181.49h212.99h90H388.48z"/>
	<polygon style="fill:#E5A030;" points="194.24,312.492 194.24,313.492 20,313.492 20,172.002 194.24,172.002 194.24,174.492    214.91,246.229  "/>
	<polyline style="fill:#B76B2C;" points="368.48,172.002 194.24,172.002 194.24,174.491 194.24,312.492 194.24,313.491    259.49,313.491 343.48,313.491 368.48,313.491 368.48,172.002  "/>
	<polyline style="fill:#E6E6E6;" points="280.49,212.991 280.49,313.491 259.49,313.491 259.49,212.991 280.49,212.991  "/>
	<polyline style="fill:#4CC18E;" points="301.49,212.991 301.49,313.491 280.49,313.491 280.49,212.991 301.49,212.991  "/>
	<polyline style="fill:#F24125;" points="322.48,212.991 322.48,313.491 301.49,313.491 301.49,212.991 322.48,212.991  "/>
	<polyline style="fill:#E6E6E6;" points="343.48,212.991 343.48,313.491 322.48,313.491 322.48,212.991 343.48,212.991  "/>
	<path style="fill:#E6E6E6;" d="M161.492,283.747c-8.547,0-15.5-6.953-15.5-15.5v-4.5c0-3.313,2.687-6,6-6s6,2.687,6,6v4.5   c0,1.93,1.57,3.5,3.5,3.5c0.938,0,1.818-0.363,2.477-1.022c0.66-0.66,1.023-1.54,1.023-2.478v-51c0-1.93-1.57-3.5-3.5-3.5   c-0.938,0-1.818,0.363-2.478,1.023c-0.659,0.659-1.022,1.539-1.022,2.477v4.5c0,3.313-2.687,6-6,6s-6-2.687-6-6v-4.5   c0-4.143,1.611-8.036,4.537-10.962c2.927-2.926,6.82-4.538,10.963-4.538c8.547,0,15.5,6.953,15.5,15.5v51   c0,4.144-1.611,8.037-4.538,10.963C169.528,282.135,165.635,283.747,161.492,283.747z"/>
</g>















</svg>
